<svg xmlns="http://www.w3.org/2000/svg">
  <symbol viewBox="0 0 24 24" id="icon-Editor-Ace-Fit_to_screen">
    <title>Editor-Ace-Fit_to_screen</title>
    <g>
      <path d="M23.1 24H.9c-.5 0-.9-.4-.9-.9V.9C0 .4.4 0 .9 0h22.2c.5 0 .9.4.9.9v22.2c0 .5-.4.9-.9.9zM1.8 22.2h20.3V1.8H1.8v20.4z" />
      <path d="M19 19H5V5h14v14zM7 17h10V7H7v10z" />
    </g>
  </symbol>
  <symbol viewBox="0 0 24 24" id="icon-Editor-Ace-Fullscreen_Close">
    <title>Editor-Ace-Fullscreen_Close</title>
    <g>
      <rect x="2.889" y="-.611" transform="rotate(134.999 3.89 3.89)" width="2" height="9" />
      <rect x="19.111" y="-.611" transform="rotate(-134.999 20.11 3.89)" width="2" height="9" />
      <rect x="19.111" y="15.611" transform="rotate(-45.001 20.11 20.111)" width="2" height="9" />
      <rect x="2.889" y="15.611" transform="rotate(45.001 3.89 20.11)" width="2" height="9" />
      <path d="M7.293 8.293a1 1 0 0 0 1-1v-7h-2v6h-6v2h7zM15.707 7.293a1 1 0 0 0 1 1h7v-2h-6v-6h-2v7zM16.707 16a1 1 0 0 0-1 1v7h2v-6h6v-2h-7zM8.293 17a1 1 0 0 0-1-1h-7v2h6v6h2v-7z" />
    </g>
  </symbol>
  <symbol viewBox="0 0 24 24" id="icon-Editor-Ace-Fullscreen_Open">
    <title>Editor-Ace-Fullscreen_Open</title>
    <g>
      <path d="M6.9 16L2 20.9V16H0v7c0 .6.5 1 1 1h7v-2H3.7l4.6-4.6L6.9 16zM8 2V0H1C.5 0 0 .4 0 1v7h2V3.4l4.9 4.9 1.4-1.4L3.4 2H8zm15-2h-7v2h4.6l-4.9 4.9 1.4 1.4L22 3.4V8h2V1c0-.6-.5-1-1-1zm-1 20.9L17.1 16l-1.4 1.4 4.6 4.6H16v2h7c.5 0 1-.4 1-1v-7h-2v4.9z"
      />
    </g>
  </symbol>
  <symbol viewBox="0 0 24 24" id="icon-Editor-Ace-Import">
    <title>Editor-Ace-Import</title>
    <g>
      <path d="M12 0c.3 0 .5.1.7.3l5.9 5.9-1.4 1.4-3.8-3.8-.4-.5V14.1h-2V3.3l-.4.4-3.8 3.8-1.4-1.3L11.3.3c.2-.2.5-.3.7-.3m12 11.1v10.7c0 1.2-1 2.2-2.2 2.3H2.3C1 23.8 0 22.8 0 21.7V11.1h2V22H22.2V11.1H24" />
    </g>
  </symbol>
  <symbol viewBox="0 0 24 24" id="icon-Editor-Ace-Indent">
    <title>Editor-Ace-Indent</title>
    <g>
      <path d="M24 2H0V0h24v2zm0 22H0v-2h24v2zm0-15H11V7h13v2zm0 8H11v-2h13v2zM.7 8.4L4.3 12 .7 15.6 2.1 17l4.3-4.3c.4-.4.4-1 0-1.4L2.1 7 .7 8.4z" />
    </g>
  </symbol>
  <symbol viewBox="0 0 24 24" id="icon-Editor-Ace-Pan">
    <title>Editor-Ace-Pan</title>
    <g>
      <path d="M23.7 11.3l-4-4-1.3 1.3 2.4 2.4h-7.9V3.2l2.4 2.4 1.3-1.3-4-4c-.4-.4-.9-.4-1.3 0l-4 4 1.3 1.3L11 3.2v7.9H3.2l2.4-2.4-1.3-1.4-4 4c-.2.2-.3.5-.3.7s.1.5.3.7l4 4 1.3-1.3L3.2 13h7.9v7.9l-2.4-2.4-1.3 1.3 4 4c.2.2.4.3.7.3s.5-.1.7-.3l4-4-1.3-1.3-2.4 2.4V13H21l-2.4 2.4 1.3 1.3 4-4c.2-.2.3-.4.3-.7s-.3-.5-.5-.7z"
      />
    </g>
  </symbol>
  <symbol viewBox="0 0 16 16" id="icon-Editor-Ace-Tabs">
    <title>Editor-Ace-Tabs</title>
    <g>
      <rect width="2" height="2" />
      <rect x="4" width="12" height="2" />
      <rect y="7" width="2" height="2" />
      <rect x="4" y="7" width="12" height="2" />
      <rect y="14" width="2" height="2" />
      <rect x="4" y="14" width="12" height="2" />
    </g>
  </symbol>
  <symbol viewBox="0 0 26 24.917" id="icon-Editor-Download">
    <title>Editor-Download</title>
    <path d="M13.023 15.213a.963.963 0 0 1-.689-.277L6.418 9.047l1.375-1.369 3.828 3.779.434.43V1.035h1.936v10.851l.434-.43 3.828-3.779 1.375 1.369-5.914 5.889a.975.975 0 0 1-.691.278" />
    <path d="M25.008 11.116v10.652c0 1.244-.965 2.24-2.19 2.266H3.482v-.002l-.227-.025c-1.215-.141-2.223-1.147-2.248-2.238V11.116H2.97V22.082h20.102V11.116h1.936" />
  </symbol>
  <symbol viewBox="0 0 99.3 99.3" id="icon-Editor-Libraries-Empty">
    <title>Editor-Libraries-Empty</title>
    <path d="M94.4 59.7h-5V49.1c-.6-5.1-4.7-9.1-9.9-9.2H69.4c-5.3.1-9.1 4.1-9.7 9.2v10.6H40V49.1c-.6-5.1-4.4-9.1-9.7-9.2H20.2c-5.3.1-9.5 4.1-9.9 9.2v10.6h-5C2.2 59.7 0 62 0 64.6v29.7c0 2.7 2.2 5 4.9 5h89.5c2.6 0 4.9-2.3 4.9-5V64.6c0-2.6-2.2-4.9-4.9-4.9m-25.1-9.9h10.2v9.9H69.3v-9.9zm-49.4 0h10.2v9.9H19.9v-9.9zm-10 39.6V69.6h79.4v19.8H9.9zm59.6-74.1H54.3V0h-9.9v15.3H29.8v9.9h14.5v14.3h9.9V25.2h15.2v-9.9z"
    />
  </symbol>
  <symbol viewBox="0 0 20 19.8" id="icon-Editor-Libraries-Server_Button">
    <title>Editor-Libraries-Server_Button</title>
    <g>
      <polygon points="11.8,5.1 14.9,5.1 14.9,7.9 16.9,7.9 16.9,5.1 19.8,5.1 19.8,3.1 16.9,3.1 16.9,0 14.9,0 14.9,3.1 11.8,3.1" />
      <path d="M0 15.6c0-1.4.7-2.6 1.8-3.4.3-3 2.8-5.4 5.9-5.4 1.9 0 3.6.9 4.8 2.4.2 0 .5-.1.7-.1 1.7 0 3.3 1 4.1 2.6 1.6.6 2.7 2.2 2.7 4 0 2.3-1.9 4.2-4.2 4.2H4.2c-2.3-.1-4.2-2-4.2-4.3zm12.4-4.5l-.8.3-.5-.7c-.7-1.2-2-1.9-3.5-1.9-2.2 0-4 1.8-4.1 4v.6l-.6.3c-.7.4-1.2 1.2-1.2 2C1.7 17 2.7 18 4 18h11.6c1.3 0 2.3-1 2.3-2.3 0-1-.7-2-1.7-2.2l-.6-.2-.2-.6C15 11.7 14 11 13 11c-.1 0-.3 0-.6.1z"
      />
    </g>
  </symbol>
  <symbol viewBox="0 0 20 19.7" id="icon-Editor-Libraries-URL_Button">
    <title>Editor-Libraries-URL_Button</title>
    <g>
      <path d="M6 19.7H3c-1.7 0-3-1.3-3-3v-3c0-1.7 1.3-3 3-3h7c1.7 0 3 1.3 3 3v3h-2v-3c0-.6-.4-1-1-1H3c-.6 0-1 .4-1 1v3c0 .6.4 1 1 1h3v2z" />
      <path d="M17 19.7h-7c-1.7 0-3-1.3-3-3v-3h2v3c0 .6.4 1 1 1h7c.6 0 1-.4 1-1v-3c0-.6-.4-1-1-1h-3v-2h3c1.7 0 3 1.3 3 3v3c0 1.7-1.3 3-3 3z" />
      <polygon points="10,5.1 13.1,5.1 13.1,7.9 15.1,7.9 15.1,5.1 18,5.1 18,3.1 15.1,3.1 15.1,0 13.1,0 13.1,3.1 10,3.1" />
    </g>
  </symbol>
  <symbol viewBox="0 0 133 28" id="icon-Editor-Main-Logo-topbar">
    <title>Editor-Main-Logo-topbar</title>
    <path d="M80.895 12.017c0-1.686-.755-2.319-2.547-2.319h-2.214v4.532h2.302c1.37.001 2.459-.509 2.459-2.213z" />
    <polygon points="98.552,15.689 102.364,15.689 100.449,9.962" />
    <path d="M59.325 2.374V26h71.239V2.374H59.325zm9.22 17.689c-3.144 0-5.27-1.704-5.27-5.814 0-3.829 2.196-5.937 5.428-5.937 1.16 0 2.354.281 3.003.685l-.474 1.317c-.65-.527-1.669-.773-2.565-.773-2.6 0-3.882 1.686-3.882 4.673 0 3.092 1.282 4.637 3.865 4.637 1.141 0 2.318-.334 2.862-.685l.352 1.194c-.896.474-2.089.703-3.319.703zm12.737-.176l-2.459-4.445h-2.688v4.445h-1.422V8.469h3.689c2.881 0 3.988 1.212 3.988 3.496 0 1.598-.808 2.705-2.126 3.197l2.705 4.725h-1.687zM93.509 9.699h-6.324v3.724h5.727v1.212h-5.727v4.005h6.324v1.247h-7.746V8.469h7.746v1.23zm10.26 10.188l-1.019-3.022h-4.585l-.983 3.022h-1.423l3.988-11.418h1.511l4.005 11.418h-1.494zm11.385-10.188h-3.934v10.189h-1.423V9.699h-3.952v-1.23h9.31v1.23zm10.295 0h-6.324v3.724h5.727v1.212h-5.727v4.005h6.324v1.247h-7.746V8.469h7.746v1.23zM51.732 14.186c0-6.423-5.416-11.654-12.082-11.654-.612 0-1.24.045-1.854.131-5.18.737-8.645 4.462-10.587 7.319C25.267 7.125 21.8 3.4 16.625 2.663a13.53 13.53 0 0 0-1.858-.131c-6.664 0-12.085 5.231-12.085 11.654 0 6.426 5.422 11.655 12.082 11.655.615 0 1.242-.047 1.862-.131 5.175-.743 8.641-4.466 10.583-7.329 1.942 2.863 5.407 6.586 10.588 7.329.614.084 1.242.131 1.862.131 6.657 0 12.073-5.229 12.073-11.655zm-35.69 7.433a8.934 8.934 0 0 1-1.278.097c-4.385 0-7.952-3.38-7.952-7.53 0-4.148 3.566-7.527 7.955-7.527.421 0 .848.034 1.275.093 4.881.698 7.865 5.508 8.877 7.433-1.016 1.931-4.002 6.74-8.877 7.434zm13.464-7.433c1.008-1.929 3.996-6.735 8.87-7.433.427-.06.858-.093 1.274-.093 4.387 0 7.951 3.379 7.951 7.527 0 4.15-3.564 7.53-7.944 7.53-.421 0-.855-.035-1.282-.097-4.874-.695-7.861-5.505-8.869-7.434z"
    />
    <rect x="11.437" y="13.05" width="7.257" height="2.335" />
    <polygon points="40.457,15.385 42.913,15.385 42.913,13.05 40.457,13.05 40.457,10.588 38.116,10.588 38.116,13.05 35.656,13.05 35.656,15.385 38.116,15.385 38.116,17.847 40.457,17.847" />
    <path d="M52.601 2.992a1.713 1.713 0 0 0-.895-.903 1.626 1.626 0 0 0-.66-.133c-.236 0-.458.043-.662.133a1.72 1.72 0 0 0-.532.361 1.718 1.718 0 0 0-.498 1.221c0 .234.047.462.135.671.09.218.214.397.363.55.149.153.328.273.531.361.204.091.427.137.662.137.236 0 .454-.045.66-.137.202-.088.381-.208.53-.361a1.733 1.733 0 0 0 .498-1.221 1.72 1.72 0 0 0-.132-.679zm-.375 1.201c-.065.161-.16.299-.28.419a1.468 1.468 0 0 1-.408.29 1.213 1.213 0 0 1-.993 0 1.309 1.309 0 0 1-.41-.29 1.361 1.361 0 0 1-.375-.941c0-.187.036-.363.101-.526.067-.168.159-.307.273-.428a1.26 1.26 0 0 1 1.811 0c.12.122.215.26.28.428.069.163.105.339.105.526.001.189-.035.362-.104.522z"
    />
    <path d="M51.412 3.838a.507.507 0 0 0 .219-.2.512.512 0 0 0 .08-.282.587.587 0 0 0-.171-.419c-.116-.12-.309-.176-.582-.176a5.538 5.538 0 0 0-.513.026v1.691h.427V3.92h.172l.297.557h.481l-.41-.639zm-.424-.228a.442.442 0 0 1-.127-.013v-.455a.512.512 0 0 1 .138-.017c.182 0 .273.085.273.245 0 .161-.093.24-.284.24z"
    />
  </symbol>
  <symbol viewBox="0 0 20 20" id="icon-Editor-Main_Sidebar-Examples">
    <title>Editor-Main_Sidebar-Examples</title>
    <g>
      <path d="M20 2c0-1.1-.8-1.9-1.9-2H2C.9 0 .1.8 0 1.9V18c0 1.1.9 2 2 2h16c1.1 0 2-.9 2-2.1V2zm-2 9v7H2V2h16v9z" />
      <rect x="4" y="5" width="2" height="2" />
      <rect x="8" y="5" width="8" height="2" />
      <rect x="4" y="9" width="2" height="2" />
      <rect x="8" y="9" width="8" height="2" />
      <rect x="4" y="13" width="2" height="2" />
      <rect x="8" y="13" width="8" height="2" />
    </g>
  </symbol>
  <symbol viewBox="0 0 20 20" id="icon-Editor-Main_Sidebar-Help">
    <title>Editor-Main_Sidebar-Help</title>
    <g>
      <path d="M10 20C4.5 20 0 15.5 0 10S4.5 0 10 0s10 4.5 10 10-4.5 10-10 10zm0-18c-4.4 0-8 3.6-8 8s3.6 8 8 8 8-3.6 8-8-3.6-8-8-8z" />
      <rect x="9" y="14" width="2" height="2" />
      <g>
        <path d="M10 4C7.8 4 6 5.8 6 8h1.8c0-1.2 1-2.3 2.2-2.3 1.2 0 2.2 1 2.2 2.2 0 .6-.2 1.2-.7 1.6-.3.3-1 1-1.3 1.4C8.9 12.1 9 12.8 9 13h2c0-.1.2-.4.6-.8l.3-.3.9-.9c.8-.9 1.2-1.9 1.2-3 0-2.2-1.8-4-4-4z" />
      </g>
    </g>
  </symbol>
  <symbol viewBox="0 0 20 20" id="icon-Editor-Main_Sidebar-Libraries">
    <title>Editor-Main_Sidebar-Libraries</title>
    <g>
      <path d="M19 4h-1V1.9c-.1-1-.9-1.8-2-1.9h-2.1c-1.1 0-1.8.8-1.9 1.9V4H8V1.9C7.9.8 7.1 0 6.1 0H4C2.9 0 2.1.8 2 1.9V4H1c-.6 0-1 .4-1 1v14c0 .6.4 1 1 1h18c.6 0 1-.4 1-1V5c0-.6-.4-1-1-1zm-5.1-2H16v2h-2.1V2zM4 2h2.1v2H4V2zm0 4h14v5.5H2V6h2zm6 12H2v-5.5h16V18h-8z"
      />
    </g>
  </symbol>
  <symbol viewBox="0 0 126 59.9" id="icon-Editor-Main_Sidebar-Logo">
    <title>Editor-Main_Sidebar-Logo</title>
    <g>
      <path d="M126 30C126 13.5 112.1.1 95 .1c-1.6 0-3.2.1-4.8.3C76.9 2.3 68 11.9 63 19.2 58 11.9 49.1 2.3 35.8.4 34.2.2 32.6.1 31 .1 13.9.1 0 13.5 0 30s13.9 29.9 31 29.9c1.6 0 3.2-.1 4.8-.3C49.1 57.7 58 48.1 63 40.8c5 7.3 13.9 16.9 27.2 18.8 1.6.2 3.2.3 4.8.3 17.1 0 31-13.4 31-29.9zM34.3 49.1c-1.1.2-2.2.2-3.3.2-11.3 0-20.4-8.7-20.4-19.3 0-10.7 9.2-19.3 20.4-19.3 1.1 0 2.2.1 3.3.2C46.8 12.7 54.5 25.1 57.1 30c-2.6 4.9-10.3 17.3-22.8 19.1zM68.9 30c2.6-4.9 10.3-17.3 22.8-19.1 1.1-.2 2.2-.2 3.3-.2 11.3 0 20.4 8.7 20.4 19.3 0 10.7-9.2 19.3-20.4 19.3-1.1 0-2.2-.1-3.3-.2C79.2 47.3 71.5 34.9 68.9 30z"
      />
      <polygon points="22.5,33.1 41.1,33.1 41.1,33.1 41.1,27.1 41.1,27.1 22.5,27.1 22.5,27.1 22.5,33.1" />
      <polygon points="97,33.1 103.3,33.1 103.3,33.1 103.3,27.1 103.3,27.1 97,27.1 97,27.1 97,20.8 97,20.8 91,20.8 91,20.8 91,27.1 91,27.1 84.7,27.1 84.7,27.1 84.7,33.1 84.7,33.1 91,33.1 91,33.1 91,39.4 91,39.4 97,39.4 97,39.4 97,33.1" />
    </g>
  </symbol>
  <symbol viewBox="0 0 76.378 74.016" id="icon-Editor-Main_Sidebar-LogoCompressed">
    <title>Editor-Main_Sidebar-LogoCompressed</title>
    <path d="M74.321 21.771c0-9.47-7.986-17.183-17.815-17.183-.902 0-1.829.066-2.734.193-7.639 1.087-12.748 6.579-15.611 10.791-2.863-4.212-7.975-9.704-15.605-10.792a19.93 19.93 0 0 0-2.74-.193c-9.825 0-17.82 7.713-17.82 17.183 0 9.475 7.995 17.186 17.815 17.186.907 0 1.832-.069 2.745-.193 7.63-1.095 12.742-6.585 15.605-10.806 2.863 4.221 7.972 9.711 15.611 10.806.905.124 1.832.193 2.745.193 9.818 0 17.804-7.71 17.804-17.185zM21.696 32.73a13.23 13.23 0 0 1-1.884.143c-6.466 0-11.724-4.984-11.724-11.103 0-6.116 5.258-11.098 11.729-11.098.621 0 1.25.049 1.879.137 7.197 1.029 11.596 8.122 13.089 10.96-1.498 2.848-5.9 9.938-13.089 10.961zm19.853-10.959c1.487-2.844 5.892-9.931 13.079-10.96a13.677 13.677 0 0 1 1.879-.137c6.468 0 11.724 4.982 11.724 11.098 0 6.119-5.256 11.103-11.713 11.103-.621 0-1.261-.052-1.89-.143-7.189-1.025-11.592-8.117-13.079-10.961z"
    />
    <rect x="14.906" y="20.096" width="10.701" height="3.443" />
    <polygon points="57.695,23.539 61.317,23.539 61.317,20.096 57.695,20.096 57.695,16.466 54.244,16.466 54.244,20.096 50.616,20.096 50.616,23.539 54.244,23.539 54.244,27.169 57.695,27.169" />
    <path d="M75.601 5.266a2.547 2.547 0 0 0-.538-.8 2.552 2.552 0 0 0-.781-.533 2.408 2.408 0 0 0-.974-.196c-.347 0-.676.064-.976.196-.3.132-.563.311-.784.533a2.54 2.54 0 0 0-.734 1.801c0 .345.069.681.199.99.132.321.315.585.535.812.22.226.483.403.784.533.3.135.629.201.976.201s.67-.067.974-.201c.298-.13.562-.306.781-.533a2.552 2.552 0 0 0 .733-1.802 2.51 2.51 0 0 0-.195-1.001zm-.552 1.771a1.848 1.848 0 0 1-.413.618c-.179.179-.378.32-.602.428a1.783 1.783 0 0 1-1.464 0 1.92 1.92 0 0 1-.604-.428 2.02 2.02 0 0 1-.403-.618 2.073 2.073 0 0 1 0-1.545c.099-.248.235-.452.403-.632a1.862 1.862 0 0 1 1.343-.565c.265 0 .504.052.725.149.224.099.422.237.602.416.177.179.318.383.413.632.102.24.154.499.154.775 0 .278-.052.533-.154.77z"
    />
    <path d="M73.849 6.513a.753.753 0 0 0 .323-.295.765.765 0 0 0 .119-.417.87.87 0 0 0-.252-.618c-.171-.177-.455-.259-.858-.259-.155 0-.289 0-.408.011a7.104 7.104 0 0 0-.347.027v2.494h.629v-.822h.254l.439.822h.709l-.608-.943zm-.626-.336a.631.631 0 0 1-.188-.02v-.671a.793.793 0 0 1 .204-.025c.268 0 .403.125.403.362s-.137.354-.419.354zM24.123 55.455c0-1.686-.755-2.319-2.547-2.319h-2.214v4.532h2.302c1.37 0 2.459-.509 2.459-2.213z"
    />
    <polygon points="41.78,59.126 45.592,59.126 43.677,53.4" />
    <path d="M2.553 45.811v23.626h71.239V45.811H2.553zm9.22 17.689c-3.144 0-5.27-1.704-5.27-5.814 0-3.829 2.196-5.937 5.428-5.937 1.16 0 2.354.281 3.003.685l-.474 1.317c-.65-.527-1.669-.773-2.565-.773-2.6 0-3.882 1.686-3.882 4.673 0 3.091 1.282 4.637 3.865 4.637 1.141 0 2.318-.334 2.862-.685l.352 1.194c-.896.475-2.089.703-3.319.703zm12.737-.175l-2.459-4.445h-2.688v4.445H17.94V51.907h3.689c2.881 0 3.988 1.212 3.988 3.496 0 1.598-.808 2.705-2.126 3.197l2.705 4.725H24.51zm12.227-10.189h-6.324v3.724h5.727v1.212h-5.727v4.005h6.324v1.247h-7.746V51.907h7.746v1.229zm10.26 10.189l-1.019-3.022h-4.585l-.983 3.022h-1.423l3.988-11.418h1.511l4.005 11.418h-1.494zm11.385-10.189h-3.934v10.189h-1.423V53.136h-3.952v-1.229h9.31v1.229zm10.295 0h-6.324v3.724h5.727v1.212h-5.727v4.005h6.324v1.247h-7.746V51.907h7.746v1.229z"
    />
  </symbol>
  <symbol viewBox="0 0 20 20" id="icon-Editor-Main_Sidebar-Preferences">
    <title>Editor-Main_Sidebar-Preferences</title>
    <g>
      <path d="M.9 17.2v1.7c0 .6.4 1 1 1s1-.5 1-1v-1.7h-2zm2-5.5V1c0-.6-.5-1-1-1S.9.5.9 1v10.7h2zm0 1.1c-.1 0 0 0 0 0h-2c-.5.1-.9.5-.9 1v1.6c0 .5.4.9.9 1h2c.5-.1.9-.5.9-1v-1.6c-.1-.6-.5-1-.9-1zm8-5.6h.1V1.1c0-.5-.5-1-1-1-.6 0-1 .5-1 1v6.1H10.9zm-1.8 5.5H9V19c0 .6.4 1 1 1s1-.5 1-1v-6.3H9.1zm8.2-4.6h-.1V19c0 .6.4 1 1 1s1-.5 1-1V8.1h-1.9zM19 2.5h.1V1c0-.6-.5-1-1-1-.6 0-1 .5-1 1v1.5H19z"
      />
    </g>
    <g>
      <path d="M11 8.2c-.1 0 0 0 0 0H9c-.5.1-.9.5-.9 1v1.6c0 .5.4.9.9 1h2c.5-.1.9-.5.9-1V9.2c-.1-.5-.4-.9-.9-1z" />
    </g>
    <g>
      <path d="M19.1 3.5h-2c-.5.1-.9.5-.9 1v1.6c0 .5.4.9.9 1h2c.5-.1.9-.5.9-1V4.5c0-.5-.4-.9-.9-1z" />
    </g>
  </symbol>
  <symbol viewBox="0 0 20 20" id="icon-Editor-Main_Sidebar-Reference">
    <title>Editor-Main_Sidebar-Reference</title>
    <g>
      <path d="M10 20C4.5 20 0 15.5 0 10S4.5 0 10 0s10 4.5 10 10-4.5 10-10 10zm0-18c-4.4 0-8 3.6-8 8s3.6 8 8 8 8-3.6 8-8-3.6-8-8-8z" />
    </g>
    <g>
      <polygon points="9,9 5,15 11,11 9,11" />
      <polygon points="9,9 11,9 11,11 15,5" />
    </g>
  </symbol>
  <symbol viewBox="0 0 22.3 20" id="icon-Editor-Main_Sidebar-Serial_Monitor">
    <title>Editor-Main_Sidebar-Serial_Monitor</title>
    <g>
      <path d="M16.2 8.1c0-4.5-3.6-8.1-8.1-8.1S0 3.6 0 8.1s3.6 8.1 8.1 8.1c1.9 0 3.7-.7 5.1-1.8l5.6 5.6 1.4-1.4-5.7-5.6c1.1-1.4 1.7-3.1 1.7-4.9zm-14.4 0c0-3.5 2.8-6.3 6.3-6.3s6.3 2.8 6.3 6.3-2.8 6.3-6.3 6.3c-3.5.1-6.3-2.8-6.3-6.3z" />
      <rect x="7.1" y="7.1" width="2" height="2" />
      <rect x="17.2" y="7.1" width="2" height="2" />
      <rect x="20.3" y="7.1" width="2" height="2" />
    </g>
  </symbol>
  <symbol viewBox="0 0 20 20" id="icon-Editor-Main_Sidebar-Sketchbook">
    <title>Editor-Main_Sidebar-Sketchbook</title>
    <g>
      <path d="M9 3V1.9C8.9.8 8.1 0 7 0H2C.9 0 .1.8 0 1.9V18c0 1.1.9 1.9 2 2h16c1.1 0 2-.9 2-2.1V3H9zm9 15H2V2h5v3h11v13z" />
    </g>
  </symbol>
  <symbol viewBox="0 0 20 20" id="icon-Editor-Main_Sidebar-Terminal">
    <title>Editor-Main_Sidebar-Terminal</title>
    <g>
      <path d="M20 2c0-1.1-.8-1.9-1.9-2H2C.9 0 .1.8 0 1.8v16.1c0 1.1.9 2 2 2h16c1.1 0 2-.9 2-2.1V2zm-2 16H2V2h16v16zm-2-3h-6v-2h6v2zM5.4 15L4 13.6l2.3-2.3L4 9l1.4-1.4 3.7 3.7L5.4 15z" />
    </g>
  </symbol>
  <symbol viewBox="0 0 20 20" id="icon-Editor-Output-Copy">
    <title>Editor-Output-Copy</title>
    <g>
      <path d="M13.4 0h-8c-.9 0-1.6.6-1.6 1.5v3.1H1.6C.8 4.6.1 5.2 0 6v12.3c0 .9.8 1.6 1.6 1.7H13c.9 0 1.6-.8 1.6-1.7v-2.1h3.8c.9 0 1.6-.8 1.6-1.7V6.6L13.4 0zM13 18.4H1.6V6.2h2.1v8.4c0 .9.8 1.6 1.6 1.7H13v2.1zm5.4-3.8h-13v-13h5.7v7.3h7.3v5.7zm-5.7-7.3V1.6l5.7 5.7h-5.7z"
      />
    </g>
  </symbol>
  <symbol viewBox="0 0 25.966 7.302" id="icon-Editor-Preferences-Tip">
    <title>Editor-Preferences-Tip</title>
    <path d="M19.427 7.302h.047v-.001c.862-.011 1.533-.667 1.623-1.508V1.622C21.084.722 20.37.04 19.474.004V0H19.016v7.302h.411zM4.87 5.679c.011.862.668 1.533 1.508 1.623h.171V0h-.057c-.917.013-1.61.752-1.623 1.669V5.679h.001z"
    />
    <rect x="13.742" width="3.355" height="7.302" />
    <rect x="8.468" width="3.355" height="7.302" />
    <rect x="19.016" y="2.839" width="6.95" height="1.623" />
    <rect y="2.839" width="6.549" height="1.623" />
  </symbol>
  <symbol viewBox="0 0 60.875 59.875" id="icon-Editor-Serial_Disconnect">
    <title>Editor-Serial_Disconnect</title>
    <path d="M60.326 55.498l-16.61-16.506a23.801 23.801 0 0 0 4.917-14.519C48.633 11.267 37.927.56 24.72.56S.807 11.267.807 24.473 11.513 48.386 24.72 48.386a23.81 23.81 0 0 0 15.383-5.61l16.535 16.432 3.688-3.71zM6.038 24.473c0-10.301 8.381-18.682 18.682-18.682s18.682 8.381 18.682 18.682-8.381 18.682-18.682 18.682-18.682-8.38-18.682-18.682z"
    />
    <polygon points="32.214,30.187 26.492,24.466 32.154,18.804 30.37,17.019 24.708,22.681 19.109,17.082 17.324,18.866 22.924,24.466 17.265,30.125 19.049,31.909 24.708,26.25 30.43,31.972" />
  </symbol>
  <symbol viewBox="0 0 12.1 12" id="icon-Editor-Sketchbook-Error">
    <title>Editor-Sketchbook-Error</title>
    <path d="M4.5 1.2c.9-1.6 2.3-1.6 3.1 0L11.8 9c.9 1.6.1 2.9-1.8 2.9H2.1C.3 11.9-.5 10.6.3 9l4.2-7.8zm.7 1.4V8H7V2.6H5.2zm0 6.4v1.8H7V9H5.2z" />
  </symbol>
  <symbol viewBox="0 0 6.1 10.7" id="icon-Editor-Sketchbook-Folder_closed">
    <title>Editor-Sketchbook-Folder_closed</title>
    <g>
      <polygon points="0.7,10.7 0,10 4.6,5.4 0,0.7 0.7,0 6.1,5.4" />
    </g>
  </symbol>
  <symbol viewBox="0 0 10.7 6.1" id="icon-Editor-Sketchbook-Folder_open">
    <title>Editor-Sketchbook-Folder_open</title>
    <g>
      <polygon points="5.4,6.1 0,0.7 0.7,0 5.4,4.6 10,0 10.7,0.7" />
    </g>
  </symbol>
  <symbol viewBox="0 0 10 10" id="icon-Editor-Sketchbook-Generic_file">
    <title>Editor-Sketchbook-Generic_file</title>
    <g>
      <path d="M10 8.3c0 1-.7 1.7-1.7 1.7H1.7C.7 10 0 9.3 0 8.3V1.7C0 .7.7 0 1.7 0h6.7c.9 0 1.6.7 1.6 1.7v6.6zM2 2v6h6V2H2z" />
    </g>
  </symbol>
  <symbol viewBox="0 0 20 20" id="icon-Editor-Sketchbook-Import_Sketch_Button">
    <title>Editor-Sketchbook-Import_Sketch_Button</title>
    <g>
      <path d="M18 18H2V9H0v8.9c0 1.1 1 1.9 2 2h16c1.1 0 2-.9 2-2.1V9h-2v9zM15.7 5.2l-5-5c-.4-.4-1-.4-1.4 0l-5 5 1.4 1.4L9 3.4V12h2V3.4l3.3 3.2 1.4-1.4z" />
    </g>
  </symbol>
  <symbol viewBox="0 0 20 20" id="icon-Editor-Sketchbook-More">
    <title>Editor-Sketchbook-More</title>
    <style>
      .st0 {
        fill: #95a5a6
      }
    </style>
    <circle class="st0" cx="3.133" cy="10" r="1.875" />
    <circle class="st0" cx="10.11" cy="10" r="1.875" />
    <circle class="st0" cx="17.086" cy="10" r="1.875" />
  </symbol>
  <symbol viewBox="0 0 20 20" id="icon-Editor-Sketchbook-New_Folder_Button">
    <title>Editor-Sketchbook-New_Folder_Button</title>
    <g>
      <path d="M17.9 11v7H2V2h5v3h5V3H9V1.9C8.8.8 8 0 7 0H2C.9 0 .1.8 0 1.9V18c0 1.1.9 2 2 2h15.9c1.1 0 2-.9 2-2.1V11h-2z" />
      <path d="M20 5.9h-3.1V2.8h-2v3.1H12v2h3v2.9h2V7.9h3v-2z" />
    </g>
  </symbol>
  <symbol viewBox="-410 288.28 20 20" id="icon-Editor-Sketchbook-Share">
    <title>Editor-Sketchbook-Share</title>
    <path d="M-392.979 302.322c-.801 0-1.526.32-2.061.835l-9.037-4.505c.014-.116.035-.23.035-.351 0-.122-.022-.239-.036-.357l9.044-4.535c.535.512 1.256.83 2.055.83a2.98 2.98 0 1 0-2.979-2.979c0 .122.022.239.036.357l-9.044 4.535a2.966 2.966 0 0 0-2.055-.83 2.98 2.98 0 0 0 0 5.958c.801 0 1.525-.32 2.061-.835l9.037 4.505c-.014.116-.035.23-.035.35a2.98 2.98 0 1 0 2.979-2.978z"
    />
  </symbol>
  <symbol viewBox="0 0 10 10" id="icon-Editor-Sketchbook-Sketch_file">
    <title>Editor-Sketchbook-Sketch_file</title>
    <g>
      <path d="M6.7 10H9c.6 0 1-.5 1-1V4.1L5.9 0H1C.5 0 0 .4 0 .9V9c0 .5.5 1 1 1h5.7zM5.1 4.8V.6l4.2 4.2H5.1z" />
    </g>
  </symbol>
  <symbol viewBox="0 0 10 10" id="icon-Editor-Sketchbook-Submenu">
    <title>Editor-Sketchbook-Submenu</title>
    <g>
      <path d="M10 5c0-2.8-2.2-5-5-5S0 2.2 0 5s2.2 5 5 5 5-2.2 5-5zM2.5 4h5L5 7.8 2.5 4z" />
    </g>
  </symbol>
  <symbol viewBox="0 0 20 14.1" id="icon-Editor-Toolbar-Upload">
    <title>Editor-Toolbar-Upload</title>
    <g>
      <path d="M19.7 6.3L13.3 0l-1.4 1.4L16.6 6H0v2h16.6l-4.7 4.6 1.4 1.4 6.4-6.3c.4-.3.4-1 0-1.4z" />
    </g>
  </symbol>
  <symbol viewBox="0 0 20 14" id="icon-Editor-Toolbar-Verify">
    <title>Editor-Toolbar-Verify</title>
    <g>
      <path d="M6.9 14c-.2 0-.5-.1-.7-.3L0 7.5l1.4-1.4 5.5 5.5L18.6 0 20 1.4 7.6 13.7c-.2.2-.4.3-.7.3z" />
    </g>
  </symbol>
  <symbol viewBox="0 0 27 27" id="icon-Global-Checkbox_checked">
    <title>Global-Checkbox_checked</title>
    <path d="M23.113 23.591H3.788a.5.5 0 0 1-.5-.5v-19a.5.5 0 0 1 .5-.5h19.325a.5.5 0 0 1 .5.5v19a.5.5 0 0 1-.5.5zm-18.825-1h18.325v-18H4.288v18z" />
    <path d="M13.641 20.154c-.252 0-.529-.101-.73-.302l-6.532-6.523 1.462-1.435 5.8 5.793L24.913 1.634l1.668 1.126-12.208 17.092a1.056 1.056 0 0 1-.732.302z" />
  </symbol>
  <symbol viewBox="0 0 27 27" id="icon-Global-Checkbox_not_checked">
    <title>Global-Checkbox_not_checked</title>
    <path d="M23.113 23.591H3.788a.5.5 0 0 1-.5-.5v-19a.5.5 0 0 1 .5-.5h19.325a.5.5 0 0 1 .5.5v19a.5.5 0 0 1-.5.5zm-18.825-1h18.325v-18H4.288v18z" />
  </symbol>
  <symbol viewBox="0 0 6 6" id="icon-Global-Close">
    <title>Global-Close</title>
    <g>
      <rect x="2.5" y="-.7" transform="rotate(45.001 3 3)" width="1" height="7.5" />
      <rect x="-.7" y="2.5" transform="rotate(45.001 3 3)" width="7.5" height="1" />
    </g>
  </symbol>
  <symbol viewBox="0 0 8 8" id="icon-Global-Close_Encapsulated">
    <title>Global-Close_Encapsulated</title>
    <path d="M4 0C1.8 0 0 1.8 0 4s1.8 4 4 4 4-1.8 4-4-1.8-4-4-4zm2.4 5.9l-.6.5L4 4.6 2.2 6.4l-.6-.5L3.4 4 1.6 2.2l.6-.6L4 3.5l1.8-1.8.6.6L4.6 4l1.8 1.9z" />
  </symbol>
  <symbol viewBox="0 0 14.125 19.062" id="icon-Global-Greater">
    <title>Global-Greater</title>
    <polygon points="10.274,6.67 13.124,9.521 10.274,12.372 4.306,18.338 1.456,15.487 7.422,9.521 1.423,3.524 4.274,0.673" />
  </symbol>
  <symbol viewBox="23.4 0 15.3 15.3" id="icon-Global-Info">
    <title>Global-Info</title>
    <path d="M31 0c-4.2 0-7.7 3.4-7.7 7.7s3.4 7.7 7.7 7.7c4.2 0 7.7-3.4 7.7-7.7S35.3 0 31 0zm1.1 12.7h-2.2V6.1h2.2v6.6zm0-7.9h-2.2V2.6h2.2v2.2z" />
  </symbol>
  <symbol viewBox="0 0 34.169 39.659" id="icon-Global-Invite">
    <title>Global-Invite</title>
    <polygon points="14.366,39.338 12.92,39.338 12.92,38.812 13.84,38.812 13.84,18.224 14.366,18.224" />
    <polygon points="20.36,39.338 18.913,39.338 18.913,38.812 19.834,38.812 19.834,18.224 20.36,18.224" />
    <path d="M22.291 18.417h-4.229v-1.623a7.573 7.573 0 0 1-1.879 0v1.623h-4.229v-2.661a8.621 8.621 0 0 1-3.419-6.849c0-4.734 3.853-8.586 8.588-8.586 4.735 0 8.587 3.852 8.587 8.586a8.629 8.629 0 0 1-3.419 6.85v2.66zm-3.702-.526h3.177v-2.4l.107-.079a8.095 8.095 0 0 0 3.312-6.505c0-4.444-3.616-8.06-8.061-8.06s-8.062 3.615-8.062 8.06a8.095 8.095 0 0 0 3.311 6.504l.108.079v2.401h3.177v-1.703l.301.045a7.273 7.273 0 0 0 2.328 0l.301-.045v1.703z"
    />
    <path d="M17.467 10.766a.486.486 0 0 0 0-.689.488.488 0 1 0 0 .689z" />
    <polygon points="11.226,10.11 11.886,10.11 11.886,9.448 12.514,9.448 12.514,10.11 13.176,10.11 13.176,10.736 12.514,10.736 12.514,11.399 11.886,11.399 11.886,10.736 11.226,10.736" />
    <polygon points="21.07,10.11 21.73,10.11 21.73,9.448 22.358,9.448 22.358,10.11 23.02,10.11 23.02,10.736 22.358,10.736 22.358,11.399 21.73,11.399 21.73,10.736 21.07,10.736" />
    <path d="M8.856 11.399A8.56 8.56 0 0 1 .277 3.163l.526-.021a8.037 8.037 0 0 0 8.053 7.731h.002v.526h-.002zM25.313 11.399a8.56 8.56 0 0 0 8.579-8.236l-.526-.021a8.037 8.037 0 0 1-8.053 7.731h-.001l-.001.526h.002z" />
  </symbol>
  <symbol viewBox="0 0 24 18.8" id="icon-Global-Main_Toolbar-Internet_OFF">
    <title>Global-Main_Toolbar-Internet_OFF</title>
    <g>
      <path d="M21.6 9.4c0 3-1.3 5.6-3.5 7.4l1.5 1.9c2.6-2.2 4.3-5.5 4.3-9.2 0-3.7-1.7-7.1-4.4-9.3L18.1 2c2.1 1.8 3.5 4.4 3.5 7.4zM2.4 9.4c0-3.1 1.4-5.8 3.6-7.5L4.6 0C1.8 2.2 0 5.6 0 9.4c0 3.8 1.8 7.2 4.5 9.4L6 16.9c-2.2-1.7-3.6-4.4-3.6-7.5z" />
      <path d="M17.5 9.4c0 1.7-.8 3.2-2 4.2l.8.9c1.5-1.2 2.4-3.1 2.4-5.1 0-2.1-1-4-2.5-5.2l-.8.9c1.3 1.1 2.1 2.6 2.1 4.3zM6.5 9.4c0-1.7.8-3.3 2.1-4.3l-.7-.9C6.3 5.4 5.3 7.3 5.3 9.4s1 4 2.5 5.2l.7-.9c-1.2-1-2-2.6-2-4.3z" />
    </g>
    <g>
      <rect x="11.1" y="1.9" transform="rotate(45.001 12.064 9.403)" width="2" height="15" />
      <rect x="4.6" y="8.4" transform="rotate(45.001 12.064 9.404)" width="15" height="2" />
    </g>
  </symbol>
  <symbol viewBox="0 0 24 18.8" id="icon-Global-Main_Toolbar-Internet_ON">
    <title>Global-Main_Toolbar-Internet_ON</title>
    <g>
      <path d="M13 7.7c-.1 0 0 0 0 0h-2c-.5.1-.9.5-.9 1v1.5c0 .5.4.9.9 1h2c.5-.1.9-.5.9-1V8.6c-.1-.5-.4-.9-.9-.9zM21.6 9.4c0 3-1.3 5.6-3.5 7.4l1.5 1.9c2.6-2.2 4.3-5.5 4.3-9.2 0-3.7-1.7-7.1-4.4-9.3L18.1 2c2.1 1.8 3.5 4.4 3.5 7.4zM2.4 9.4c0-3.1 1.4-5.8 3.6-7.5L4.6 0C1.8 2.2 0 5.6 0 9.4c0 3.8 1.8 7.2 4.5 9.4L6 16.9c-2.2-1.7-3.6-4.4-3.6-7.5z"
      />
      <path d="M17.5 9.4c0 1.7-.8 3.2-2 4.2l.8.9c1.5-1.2 2.4-3.1 2.4-5.1 0-2.1-1-4-2.5-5.2l-.8.9c1.3 1.1 2.1 2.6 2.1 4.3zM6.5 9.4c0-1.7.8-3.3 2.1-4.3l-.7-.9C6.3 5.4 5.3 7.3 5.3 9.4s1 4 2.5 5.2l.7-.9c-1.2-1-2-2.6-2-4.3z" />
    </g>
  </symbol>
  <symbol viewBox="0 0 18 18" id="icon-Global-Menu_Home-BBCube">
    <title>Global-Menu_Home-BBCube</title>
    <g>
      <path d="M4 3.158A.842.842 0 0 1 3.158 4H.842A.842.842 0 0 1 0 3.158V.842C0 .377.377 0 .842 0h2.316C3.623 0 4 .377 4 .842v2.316zM18 3.158a.842.842 0 0 1-.842.842h-2.316A.842.842 0 0 1 14 3.158V.842c0-.465.377-.842.842-.842h2.316c.465 0 .842.377.842.842v2.316zM11 3.158a.842.842 0 0 1-.842.842H7.842A.842.842 0 0 1 7 3.158V.842C7 .377 7.377 0 7.842 0h2.316c.465 0 .842.377.842.842v2.316zM4 17.158a.842.842 0 0 1-.842.842H.842A.842.842 0 0 1 0 17.158v-2.316C0 14.377.377 14 .842 14h2.316c.465 0 .842.377.842.842v2.316zM18 17.158a.842.842 0 0 1-.842.842h-2.316a.842.842 0 0 1-.842-.842v-2.316c0-.465.377-.842.842-.842h2.316c.465 0 .842.377.842.842v2.316zM11 17.158a.842.842 0 0 1-.842.842H7.842A.842.842 0 0 1 7 17.158v-2.316c0-.465.377-.842.842-.842h2.316c.465 0 .842.377.842.842v2.316zM4 10.158a.842.842 0 0 1-.842.842H.842A.842.842 0 0 1 0 10.158V7.842C0 7.377.377 7 .842 7h2.316c.465 0 .842.377.842.842v2.316zM18 10.158a.842.842 0 0 1-.842.842h-2.316a.842.842 0 0 1-.842-.842V7.842c0-.465.377-.842.842-.842h2.316c.465 0 .842.377.842.842v2.316zM11 10.158a.842.842 0 0 1-.842.842H7.842A.842.842 0 0 1 7 10.158V7.842C7 7.377 7.377 7 7.842 7h2.316c.465 0 .842.377.842.842v2.316z"
      />
    </g>
  </symbol>
  <symbol viewBox="0 0 16.845 17.269" id="icon-Global-Menu_Home-Power">
    <title>Global-Menu_Home-Power</title>
    <path d="M16.845 8.848a8.416 8.416 0 0 0-4.993-7.689v3.084c1.409 1.05 2.331 2.712 2.335 4.605a5.776 5.776 0 0 1-5.764 5.764 5.773 5.773 0 0 1-5.764-5.764c0-1.893.927-3.555 2.335-4.605V1.156C2.054 2.472 0 5.415 0 8.848a8.419 8.419 0 0 0 8.424 8.421 8.424 8.424 0 0 0 8.424-8.421h-.003z"
    />
    <path d="M9.924 8.964a1.04 1.04 0 0 1-1.038 1.038h-.923a1.04 1.04 0 0 1-1.038-1.038V1.038A1.04 1.04 0 0 1 7.963 0h.923a1.04 1.04 0 0 1 1.038 1.038v7.926z" />
  </symbol>
  <symbol viewBox="0 0 10 10" id="icon-Global-Plus">
    <title>Global-Plus</title>
    <g>
      <polygon points="10,3.9 6.2,3.9 6.2,0 3.7,0 3.7,3.9 0,3.9 0,6.4 3.7,6.4 3.7,10 6.2,10 6.2,6.4 10,6.4" />
    </g>
  </symbol>
  <symbol viewBox="0 0 12 12" id="icon-Global-Search">
    <title>Global-Search</title>
    <g>
      <path d="M4.8 1C7 1 8.7 2.7 8.7 4.9S7 8.8 4.8 8.8 1 7.1 1 4.9 2.7 1 4.8 1m0-1C2.2 0 0 2.2 0 4.9s2.2 4.9 4.8 4.9c2.7 0 4.8-2.2 4.8-4.9C9.7 2.2 7.5 0 4.8 0z" />
      <rect x="7.1" y="9.3" transform="rotate(45.275 9.754 9.739)" width="5.4" height="1" />
    </g>
  </symbol>
  <symbol viewBox="0 0 20 20" id="icon-Global-Trash">
    <title>Global-Trash</title>
    <g>
      <path d="M15.8 5.5l-1 11.5c0 .6-.5 1-1 1V5.5h-2V18h-4V5.5h-2V18c-.6 0-1-.5-1-1.1l-1-11.4h-2l1 11.5c0 1.7 1.4 3 3 3h8c1.7 0 3-1.4 3-2.9l1-11.5h-2z" />
      <polygon points="14,1.5 14,0 6,0 6,1.5 0,1.5 0,3.4 0,3.6 20,3.6 20,3.4 20,1.5" />
    </g>
  </symbol>
  <symbol viewBox="0 0 14 7" id="icon-Global-Triangle_Down">
    <title>Global-Triangle_Down</title>
    <polygon points="14,0 7,7 0,0" />
  </symbol>
  <symbol viewBox="0 0 7 14" id="icon-Global-Triangle_Left">
    <title>Global-Triangle_Left</title>
    <polygon points="7,14.1 0,7.1 7,0.1" />
  </symbol>
  <symbol viewBox="0 0 7 14" id="icon-Global-Triangle_Right">
    <title>Global-Triangle_Right</title>
    <polygon points="0,0.1 7,7.1 0,14.1" />
  </symbol>
  <symbol viewBox="0 0 14 7" id="icon-Global-Triangle_Up">
    <title>Global-Triangle_Up</title>
    <polygon points="0,7 7,0 14,7" />
  </symbol>
  <symbol viewBox="0 0 130.208 28.333" id="icon-Global-WebApp_Compressed">
    <title>Global-WebApp_Compressed</title>
    <g>
      <path d="M51.066 14.019c0-6.423-5.416-11.654-12.082-11.654-.612 0-1.24.045-1.854.131-5.181.737-8.646 4.462-10.588 7.319-1.942-2.856-5.409-6.581-10.583-7.319a13.53 13.53 0 0 0-1.858-.131c-6.664 0-12.085 5.231-12.085 11.654 0 6.426 5.422 11.655 12.082 11.655.615 0 1.242-.047 1.862-.131 5.175-.743 8.641-4.466 10.583-7.329 1.942 2.863 5.407 6.586 10.588 7.329.614.084 1.242.131 1.862.131 6.656.001 12.073-5.228 12.073-11.655zm-35.691 7.433a8.934 8.934 0 0 1-1.278.097c-4.385 0-7.952-3.38-7.952-7.53 0-4.148 3.566-7.527 7.955-7.527.421 0 .848.034 1.275.093 4.881.698 7.865 5.508 8.877 7.433-1.016 1.932-4.001 6.74-8.877 7.434zm13.464-7.433c1.008-1.929 3.996-6.735 8.87-7.433.427-.06.858-.093 1.274-.093 4.387 0 7.951 3.379 7.951 7.527 0 4.15-3.564 7.53-7.944 7.53-.421 0-.855-.035-1.282-.097-4.874-.695-7.86-5.505-8.869-7.434z"
      />
      <rect x="10.77" y="12.884" width="7.257" height="2.335" />
      <polygon points="39.79,15.219 42.246,15.219 42.246,12.884 39.79,12.884 39.79,10.422 37.45,10.422 37.45,12.884 34.989,12.884 34.989,15.219 37.45,15.219 37.45,17.68 39.79,17.68" />
      <path d="M51.934 2.826a1.713 1.713 0 0 0-.895-.903 1.626 1.626 0 0 0-.66-.133c-.236 0-.458.043-.662.133-.204.09-.382.211-.531.361a1.718 1.718 0 0 0-.498 1.221c0 .234.047.462.135.671.09.218.214.397.363.55.149.154.327.274.531.362.204.091.427.137.662.137.236 0 .454-.045.66-.137.203-.088.382-.208.53-.361a1.733 1.733 0 0 0 .498-1.221 1.736 1.736 0 0 0-.133-.68zm-.375 1.201c-.065.161-.16.299-.28.419a1.468 1.468 0 0 1-.408.29 1.213 1.213 0 0 1-.993 0 1.309 1.309 0 0 1-.41-.29 1.361 1.361 0 0 1-.273-.419 1.411 1.411 0 0 1 0-1.048c.067-.168.159-.307.273-.428a1.26 1.26 0 0 1 1.811 0c.12.122.215.26.28.428.069.163.105.339.105.526 0 .188-.035.361-.105.522z"
      />
      <path d="M50.745 3.671a.507.507 0 0 0 .219-.2.512.512 0 0 0 .08-.282.587.587 0 0 0-.171-.419c-.116-.12-.309-.176-.582-.176a5.538 5.538 0 0 0-.513.026v1.691h.427v-.557h.172l.297.557h.481l-.41-.64zm-.424-.228a.442.442 0 0 1-.127-.013v-.455a.512.512 0 0 1 .138-.017c.182 0 .273.085.273.245 0 .162-.093.24-.284.24z"
      />
    </g>
    <g>
      <path d="M79.724 11.917c0-1.647-.737-2.264-2.487-2.264h-2.162v4.426h2.248c1.338-.001 2.401-.498 2.401-2.162z" />
      <polygon points="96.968,15.502 100.691,15.502 98.821,9.91" />
      <path d="M58.659 2.498v23.074h69.574V2.498H58.659zm9.003 17.276c-3.071 0-5.147-1.664-5.147-5.678 0-3.74 2.145-5.799 5.301-5.799 1.132 0 2.299.275 2.933.669l-.463 1.287c-.635-.515-1.63-.755-2.505-.755-2.539 0-3.791 1.647-3.791 4.563 0 3.019 1.252 4.529 3.774 4.529 1.115 0 2.264-.326 2.796-.669l.344 1.167c-.875.463-2.04.686-3.242.686zm12.44-.172l-2.402-4.34h-2.625v4.341h-1.389V8.451h3.603c2.813 0 3.894 1.184 3.894 3.414 0 1.561-.789 2.642-2.076 3.122l2.642 4.615h-1.647zm11.941-9.95h-6.176v3.637h5.593v1.184h-5.593v3.911h6.176v1.218h-7.565V8.451h7.565v1.201zm10.02 9.95l-.996-2.951H96.59l-.96 2.951h-1.39l3.894-11.151h1.475l3.911 11.151h-1.457zm11.119-9.95h-3.842v9.95h-1.39v-9.95h-3.86V8.451h9.092v1.201zm10.054 0h-6.176v3.637h5.593v1.184h-5.593v3.911h6.176v1.218h-7.565V8.451h7.565v1.201z"
      />
    </g>
  </symbol>
  <symbol viewBox="0 0 24.202 24.276" id="icon-Global-user-profile">
    <title>Global-user-profile</title>
    <path d="M20.912 19.718h-1c0-3.827-.883-6.199-5.28-6.199h-5.44c-4.397 0-5.28 2.229-5.28 5.824h-1v-.115c.017-3.337.809-6.709 6.28-6.709h5.44c5.534 0 6.28 3.639 6.28 7.199z" />
    <path d="M11.949 13.156c-2.463 0-4.467-2.1-4.467-4.68s2.004-4.68 4.467-4.68c2.463 0 4.467 2.099 4.467 4.68s-2.004 4.68-4.467 4.68zm0-8.36c-1.912 0-3.467 1.651-3.467 3.68s1.555 3.68 3.467 3.68c1.912 0 3.467-1.651 3.467-3.68s-1.555-3.68-3.467-3.68z"
    />
    <path d="M12.034 23.979C5.436 23.979.069 18.611.069 12.014S5.436.049 12.034.049s11.965 5.367 11.965 11.965-5.367 11.965-11.965 11.965zm0-22.43c-5.771 0-10.465 4.694-10.465 10.465s4.694 10.465 10.465 10.465 10.465-4.695 10.465-10.465S17.804 1.549 12.034 1.549z"
    />
  </symbol>
  <symbol viewBox="0 0 20.597 18.807" id="icon-Home-Grid-Open_in_new">
    <title>Home-Grid-Open_in_new</title>
    <rect x="14.542" y="-.105" transform="rotate(-134.999 15.663 4.937)" width="2.241" height="10.084" />
    <path d="M20.597 1.123a1.12 1.12 0 0 0-1.12-1.12h-7.843V2h6.931v6.966h2.032V1.123zM19.241 18.807H1.355C.608 18.807 0 18.168 0 17.383V1.426C0 .641.608.003 1.355.003H8.24l.029 1.982h-6.28L1.96 16.792h16.604v-3.988h2.032v4.58c.001.784-.608 1.423-1.355 1.423z"
    />
  </symbol>
  <symbol viewBox="0 0 24 24" id="icon-Library_star">
    <title>Library_star</title>
    <path d="M17.948 14.807a.475.475 0 0 0-.151.466l1.735 7.486a.475.475 0 0 1-.708.514l-6.58-3.972a.474.474 0 0 0-.49 0l-6.579 3.97a.475.475 0 0 1-.708-.514l1.745-7.485a.475.475 0 0 0-.151-.466L.249 9.772A.475.475 0 0 1 .52 8.94l7.653-.649a.474.474 0 0 0 .397-.286L11.561.946a.475.475 0 0 1 .874 0l2.991 7.047a.477.477 0 0 0 .397.287l7.657.66a.473.473 0 0 1 .271.829l-5.803 5.038z"
    />
  </symbol>
  <symbol viewBox="0 0 24 24" id="icon-Library_star_border">
    <title>Library_star_border</title>
    <path d="M23.751 9.769a.473.473 0 0 0-.271-.829l-7.657-.66a.477.477 0 0 1-.397-.287L12.435.946a.475.475 0 0 0-.874 0L8.57 8.005a.474.474 0 0 1-.397.286L.52 8.94a.475.475 0 0 0-.271.832l5.812 5.034a.475.475 0 0 1 .151.466l-1.745 7.485a.475.475 0 0 0 .708.514l6.579-3.97a.474.474 0 0 1 .49 0l6.58 3.972a.475.475 0 0 0 .708-.514l-1.735-7.486a.475.475 0 0 1 .151-.466l5.803-5.038zM15.77 18.18L12 15.9l-3.76 2.27 1-4.28-3.32-2.88 4.38-.38L12 6.6l1.71 4.04 4.38.38-3.32 2.88 1 4.28z"
    />
  </symbol>
  <symbol viewBox="0 0 20 20" id="icon-Tools-Main_Sidebar-Board_Settings">
    <title>Tools-Main_Sidebar-Board_Settings</title>
    <path d="M19 9.5a1 1 0 1 0 0-2h-2.027v-1H19a1 1 0 1 0 0-2h-2.426A2.927 2.927 0 0 0 15.5 3.426V1a1 1 0 1 0-2 0v2.027h-1V1a1 1 0 1 0-2 0v2.027h-1V1a1 1 0 0 0-2 0v2.027h-1V1a1 1 0 0 0-2 0v2.426A2.912 2.912 0 0 0 3.426 4.5H1a1 1 0 0 0 0 2h2.027v1H1a1 1 0 0 0 0 2h2.027v1H1a1 1 0 0 0 0 2h2.027v1H1a1 1 0 0 0 0 2h2.426c.258.448.626.816 1.074 1.074V19a1 1 0 0 0 2 0v-2.027h1V19a1 1 0 0 0 2 0v-2.027h1V19a1 1 0 0 0 2 0v-2.027h1V19a1 1 0 1 0 2 0v-2.426a2.927 2.927 0 0 0 1.074-1.074H19a1 1 0 1 0 0-2h-2.027v-1H19a1 1 0 1 0 0-2h-2.027v-1H19zM5.946 15.027a.973.973 0 0 1-.973-.973V5.946c0-.537.436-.973.973-.973h8.108c.537 0 .974.436.974.973v8.108a.974.974 0 0 1-.974.973H5.946z"
    />
  </symbol>
  <symbol viewBox="0 0 20 20" id="icon-Tools-Main_Sidebar-Find_Boards">
    <title>Tools-Main_Sidebar-Find_Boards</title>
    <g>
      <path d="M16 10c0-1.6-1.3-2.8-3-2.8h-.5c-1.2.2-2 1.1-2.5 1.8-.5-.7-1.3-1.6-2.6-1.8h-.5c-1.6 0-3 1.3-3 2.8 0 1.6 1.3 2.9 3 2.9h.5c1.3-.2 2.1-1.1 2.6-1.8.5.7 1.3 1.6 2.6 1.8h.5c1.6 0 2.9-1.3 2.9-2.9zm-8.7 1.8H7c-1.1 0-2-.8-2-1.8s.9-1.8 2-1.8h.3c1.2.2 1.9 1.3 2.1 1.8-.2.5-.9 1.6-2.1 1.8zm3.3-1.8c.2-.5 1-1.6 2.2-1.8h.3c1 0 1.9.8 1.9 1.8s-.9 1.8-1.9 1.8h-.3c-1.3-.2-2-1.3-2.2-1.8z"
      />
      <polygon points="6.1,10.3 7.9,10.3 7.9,10.3 7.9,9.7 7.9,9.7 6.1,9.7 6.1,9.7 6.1,10.3" />
      <polygon points="13.2,10.3 13.8,10.3 13.8,10.3 13.8,9.7 13.8,9.7 13.2,9.7 13.2,9.7 13.2,9.1 13.2,9.1 12.7,9.1 12.7,9.1 12.7,9.7 12.7,9.7 12.1,9.7 12.1,9.7 12.1,10.3 12.1,10.3 12.7,10.3 12.7,10.3 12.7,10.9 12.7,10.9 13.2,10.9 13.2,10.9 13.2,10.3"
      />
    </g>
    <g>
      <path d="M20 2c0-1.1-.8-1.9-1.9-2H2C.9 0 .1.8 0 1.8v16.1c0 1.1.9 2 2 2h16c1.1 0 2-.9 2-2.1V2zm-2 16H2V2h16v16z" />
    </g>
  </symbol>
  <symbol viewBox="0 0 24 18.8" id="icon-Tools-Main_Sidebar-Network">
    <title>Tools-Main_Sidebar-Network</title>
    <g>
      <path d="M13 7.7c-.1 0 0 0 0 0h-2c-.5.1-.9.5-.9 1v1.5c0 .5.4.9.9 1h2c.5-.1.9-.5.9-1V8.6c-.1-.5-.4-.9-.9-.9zM21.6 9.4c0 3-1.3 5.6-3.5 7.4l1.5 1.9c2.6-2.2 4.3-5.5 4.3-9.2 0-3.7-1.7-7.1-4.4-9.3L18.1 2c2.1 1.8 3.5 4.4 3.5 7.4zM2.4 9.4c0-3.1 1.4-5.8 3.6-7.5L4.6 0C1.8 2.2 0 5.6 0 9.4c0 3.8 1.8 7.2 4.5 9.4L6 16.9c-2.2-1.7-3.6-4.4-3.6-7.5z"
      />
      <path d="M17.5 9.4c0 1.7-.8 3.2-2 4.2l.8.9c1.5-1.2 2.4-3.1 2.4-5.1 0-2.1-1-4-2.5-5.2l-.8.9c1.3 1.1 2.1 2.6 2.1 4.3zM6.5 9.4c0-1.7.8-3.3 2.1-4.3l-.7-.9C6.3 5.4 5.3 7.3 5.3 9.4s1 4 2.5 5.2l.7-.9c-1.2-1-2-2.6-2-4.3z" />
    </g>
  </symbol>
  <symbol viewBox="0 0 20 20.3" id="icon-Tools-Main_Sidebar-Scheduler">
    <title>Tools-Main_Sidebar-Scheduler</title>
    <g>
      <path d="M20 4.3c0-1.1-.8-1.9-1.9-2H2c-1.1 0-1.9.8-2 1.8v14c0 1.1.9 2 2 2h16c1.1 0 2-.9 2-2.1V4.3zm-2 14H2v-14h16v14z" />
    </g>
    <g>
      <line x1="1.2" y1="10" x2="19.2" y2="10" />
      <rect x="1.2" y="9" width="18" height="1" />
    </g>
    <g>
      <line x1="1.2" y1="15" x2="18.2" y2="15" />
      <rect x="1.2" y="14" width="17" height="1" />
    </g>
    <g>
      <rect x="4.2" width="2" height="7" />
      <rect x="14.2" width="2" height="7" />
      <line x1="5.2" y1="10" x2="5.2" y2="19" />
      <rect x="5.2" y="10" width="1" height="9" />
      <g>
        <line x1="14.2" y1="10" x2="14.2" y2="19" />
        <rect x="14.2" y="10" width="1" height="9" />
      </g>
    </g>
  </symbol>
  <symbol viewBox="0 0 21 21" id="icon-Tools-Main_Sidebar-Serial_Ports">
    <title>Tools-Main_Sidebar-Serial_Ports</title>
    <path d="M20.1 10h-2.4V4.6c0-2.1-1.7-3.8-3.8-3.8H13c-2.1 0-3.8 1.7-3.8 3.8v11.7c0 1.1-.9 2-2 2h-.9c-1.1 0-2-.9-2-2V11h1.6c.5 0 .9-.4.9-.9V3.4c0-.5-.4-.9-.8-.9V.9c0-.5-.4-.9-.9-.9H1.8C1.2 0 .8.4.8.9v1.6c-.4.1-.8.4-.8.9v6.7c0 .5.4.9.9.9h1.6v5.4c0 2.1 1.7 3.8 3.8 3.8h.9c1 0 2-.4 2.7-1.1.7-.7 1.1-1.7 1.1-2.7V4.6c0-1.1.9-2 2-2h.9c1.1 0 2 .9 2 2V10h-2.4c-.5 0-.9.4-.9.9v6.7c0 .5.4.9.8.9v1.6c0 .5.4.9.9.9h5c.5 0 .9-.4.9-.9v-1.6c.5 0 .8-.4.8-.9v-6.7c0-.5-.4-.9-.9-.9zm-1.8 9.2h-3.2v-.7h3.2v.7zm-4-1.6v-5.8h4.8v5.8h-4.8zM1.8 9.1V3.3h3.3v5.8H1.8zm.9-7.3h1.5v.7H2.7v-.7z"
    />
  </symbol>
  <symbol viewBox="0 0 19 19.2" id="icon-Tools-Main_Sidebar-System_Monitor">
    <title>Tools-Main_Sidebar-System_Monitor</title>
    <g>
      <path d="M10.3 13.2c-.2 0-.4-.1-.5-.3L8.6 9.2H5v-1h4c.2 0 .4.1.5.3l.9 2.7 4.1-11c.1-.1.3-.2.5-.2s.4.2.4.5l.8 8.8H19v1h-3.2c-.3 0-.5-.2-.5-.5l-.6-7L10.8 13c-.1.1-.3.2-.5.2z" />
      <polygon points="19,19.2 0,19.2 0,0.2 2,0.2 2,17.2 19,17.2" />
    </g>
  </symbol>
  <symbol viewBox="0 0 20 20" id="icon-Tools-Main_Sidebar-USB_Devices">
    <title>Tools-Main_Sidebar-USB_Devices</title>
    <g>
      <path d="M2 0C.9 0 .1.8 0 1.9V18c0 1.1.8 1.9 1.8 2h16.1c1.1 0 2-.9 2-2V2c0-1.1-.9-2-2.1-2H2zm16 2v16H2V2h16z" />
    </g>
    <g>
      <path d="M16.6 13l-2.9-1.3v.9H7.9l1.4-1.9h.9c.2.5.6.8 1.1.8.7 0 1.2-.5 1.2-1.2s-.5-1.2-1.2-1.2c-.5 0-1 .3-1.1.8H8.9l-2 2.7h-.4c-.2-.7-.8-1.3-1.6-1.3-.9 0-1.6.7-1.6 1.6 0 .9.7 1.6 1.6 1.6.8 0 1.4-.5 1.6-1.3h1.9l1.7 2.5h1.1v.6h1.9v-1.9h-1.9v.6h-.7l-1.2-1.7h4.4v.9l2.9-1.2z"
      />
    </g>
    <g>
      <path d="M15.3 3.6h1.4v1.3h-1.4V3.6zm-11.9 0h1.4v1.3H3.4V3.6z" />
    </g>
    <g>
      <rect x="1.3" y="6.6" width="17.3" height="1" />
    </g>
  </symbol>
</svg>